<?xml version="1.0" encoding="UTF-8" standalone="no"?>
<!-- Created with Inkscape (http://www.inkscape.org/) -->

<svg
   xmlns:dc="http://purl.org/dc/elements/1.1/"
   xmlns:cc="http://creativecommons.org/ns#"
   xmlns:rdf="http://www.w3.org/1999/02/22-rdf-syntax-ns#"
   xmlns:svg="http://www.w3.org/2000/svg"
   xmlns="http://www.w3.org/2000/svg"
   xmlns:sodipodi="http://sodipodi.sourceforge.net/DTD/sodipodi-0.dtd"
   xmlns:inkscape="http://www.inkscape.org/namespaces/inkscape"
   width="68.26667"
   version="1.1"
   height="68.26667"
   id="svg2"
   inkscape:version="0.92.0 r"
   sodipodi:docname="icon.svg"
   inkscape:export-filename="/home/xavier/Projects/SMBYC/Qgis_Plugins/CloudMasking/icon.png"
   inkscape:export-xdpi="112.5"
   inkscape:export-ydpi="112.5"
   viewBox="0 0 64 64">
  <sodipodi:namedview
     pagecolor="#ffffff"
     bordercolor="#666666"
     borderopacity="1"
     objecttolerance="10"
     gridtolerance="10"
     guidetolerance="10"
     inkscape:pageopacity="0"
     inkscape:pageshadow="2"
     inkscape:window-width="1920"
     inkscape:window-height="1014"
     id="namedview45"
     showgrid="false"
     inkscape:zoom="3.6875"
     inkscape:cx="38.625581"
     inkscape:cy="33.841653"
     inkscape:window-x="0"
     inkscape:window-y="0"
     inkscape:window-maximized="1"
     inkscape:current-layer="layer1" />
  <defs
     id="defs5455" />
  <metadata
     id="metadata5458">
    <rdf:RDF>
      <cc:Work
         rdf:about="">
        <dc:format>image/svg+xml</dc:format>
        <dc:type
           rdf:resource="http://purl.org/dc/dcmitype/StillImage" />
      </cc:Work>
    </rdf:RDF>
  </metadata>
  <g
     inkscape:label="Capa 1"
     inkscape:groupmode="layer"
     id="layer1"
     transform="translate(-384.57143,-483.798)">
    <rect
       width="0"
       x="352.95316"
       y="492.91455"
       height="14.668059"
       style="fill:#4d4d4d"
       id="rect4035" />
    <rect
       width="0"
       x="359.91373"
       y="515.48517"
       height="14.668059"
       style="fill:#4d4d4d"
       id="rect4035-8" />
    <rect
       width="0"
       x="361.72702"
       y="514.42444"
       height="14.668059"
       style="fill:#4d4d4d"
       id="rect4035-0" />
    <rect
       width="0"
       x="335.79691"
       y="489.1333"
       height="14.668059"
       style="fill:#4d4d4d"
       id="rect4035-06" />
    <rect
       width="0"
       x="342.75748"
       y="511.70392"
       height="14.668059"
       style="fill:#4d4d4d"
       id="rect4035-8-7" />
    <rect
       width="0"
       x="344.57077"
       y="510.64319"
       height="14.668059"
       style="fill:#4d4d4d"
       id="rect4035-0-42" />
    <rect
       width="0"
       x="335.79691"
       y="489.1333"
       height="14.668059"
       style="fill:#4d4d4d"
       id="rect4035-3" />
    <rect
       width="0"
       x="342.75748"
       y="511.70392"
       height="14.668059"
       style="fill:#4d4d4d"
       id="rect4035-8-9" />
    <rect
       width="0"
       x="344.57077"
       y="510.64319"
       height="14.668059"
       style="fill:#4d4d4d"
       id="rect4035-0-4" />
    <rect
       width="0"
       x="335.79691"
       y="489.1333"
       height="14.668059"
       style="fill:#4d4d4d"
       id="rect4035-2" />
    <rect
       width="0"
       x="342.75748"
       y="511.70392"
       height="14.668059"
       style="fill:#4d4d4d"
       id="rect4035-8-99" />
    <rect
       width="0"
       x="344.57077"
       y="510.64319"
       height="14.668059"
       style="fill:#4d4d4d"
       id="rect4035-0-43" />
    <rect
       width="0"
       x="335.79691"
       y="489.1333"
       height="14.668059"
       style="fill:#4d4d4d"
       id="rect4035-3-9" />
    <rect
       width="0"
       x="342.75748"
       y="511.70392"
       height="14.668059"
       style="fill:#4d4d4d"
       id="rect4035-8-9-9" />
    <rect
       width="0"
       x="344.57077"
       y="510.64319"
       height="14.668059"
       style="fill:#4d4d4d"
       id="rect4035-0-4-4" />
    <rect
       width="0"
       x="406.06702"
       y="510.42273"
       height="10.999983"
       style="fill:#4d4d4d"
       id="rect4035-5" />
    <rect
       width="0"
       x="401.51501"
       y="512.94183"
       height="10.999983"
       style="fill:#4d4d4d"
       id="rect4035-7" />
    <rect
       width="0"
       x="397.00723"
       y="500.52325"
       height="10.999983"
       style="fill:#4d4d4d"
       id="rect4035-9" />
    <rect
       width="0"
       x="397.85126"
       y="512.76068"
       height="10.999983"
       style="fill:#4d4d4d"
       id="rect4035-96" />
    <rect
       width="0"
       x="393.29926"
       y="515.27979"
       height="10.999983"
       style="fill:#4d4d4d"
       id="rect4035-7-0" />
    <rect
       width="0"
       x="388.79147"
       y="502.86121"
       height="10.999983"
       style="fill:#4d4d4d"
       id="rect4035-9-6" />
    <rect
       width="0"
       x="406.06702"
       y="510.42273"
       height="10.999983"
       style="fill:#4d4d4d"
       id="rect4035-1" />
    <rect
       width="0"
       x="401.51501"
       y="512.94183"
       height="10.999983"
       style="fill:#4d4d4d"
       id="rect4035-7-2" />
    <rect
       width="0"
       x="397.00723"
       y="500.52325"
       height="10.999983"
       style="fill:#4d4d4d"
       id="rect4035-9-0" />
    <rect
       width="0"
       x="397.85126"
       y="512.76068"
       height="10.999983"
       style="fill:#4d4d4d"
       id="rect4035-96-9" />
    <rect
       width="0"
       x="393.29926"
       y="515.27979"
       height="10.999983"
       style="fill:#4d4d4d"
       id="rect4035-7-0-9" />
    <rect
       width="0"
       x="388.79147"
       y="502.86121"
       height="10.999983"
       style="fill:#4d4d4d"
       id="rect4035-9-6-9" />
    <path
       style="fill:#0f5d89;fill-opacity:1;stroke-linejoin:round"
       id="path4225"
       d="m 416.57143,492.96755 a 17.757062,17.757062 0 0 0 -17.75707,17.75706 17.757062,17.757062 0 0 0 0.2032,2.54167 12.683616,12.683616 0 0 0 -0.2032,-0.005 12.683616,12.683616 0 0 0 -12.68361,12.68363 12.683616,12.683616 0 0 0 12.68361,12.6836 h 32.97741 a 15.22034,15.22034 0 0 0 15.22034,-15.22035 15.22034,15.22034 0 0 0 -12.85703,-15.02215 17.757062,17.757062 0 0 0 -17.58365,-15.41852 z m 0,2.53672 a 15.22034,15.22034 0 0 1 1.52105,0.0743 15.22034,15.22034 0 0 1 7.07012,2.58626 15.22034,15.22034 0 0 1 0.005,0 15.22034,15.22034 0 0 1 3.32448,3.09658 15.22034,15.22034 0 0 1 0,0.005 15.22034,15.22034 0 0 1 3.08175,6.93142 15.22034,15.22034 0 0 1 0.2179,2.5268 12.683616,12.683616 0 0 1 2.52682,0.25267 12.683616,12.683616 0 0 1 1.22377,0.31214 12.683616,12.683616 0 0 1 0.005,0 12.683616,12.683616 0 0 1 1.18414,0.43598 12.683616,12.683616 0 0 1 0.005,0 12.683616,12.683616 0 0 1 1.1346,0.54996 12.683616,12.683616 0 0 1 0.0101,0.005 12.683616,12.683616 0 0 1 1.07019,0.65898 12.683616,12.683616 0 0 1 0.0101,0.005 12.683616,12.683616 0 0 1 1.00081,0.76299 12.683616,12.683616 0 0 1 0.005,0.005 12.683616,12.683616 0 0 1 0.92154,0.85717 12.683616,12.683616 0 0 1 0.005,0.005 12.683616,12.683616 0 0 1 1.5706,1.98182 12.683616,12.683616 0 0 1 0.005,0.005 12.683616,12.683616 0 0 1 0.62426,1.09496 12.683616,12.683616 0 0 1 0.005,0.005 12.683616,12.683616 0 0 1 0.5153,1.14944 12.683616,12.683616 0 0 1 0.005,0.005 12.683616,12.683616 0 0 1 0.39636,1.199 12.683616,12.683616 0 0 1 0,0.005 12.683616,12.683616 0 0 1 0.27747,1.23368 12.683616,12.683616 0 0 1 0,0.005 12.683616,12.683616 0 0 1 0.15347,1.2535 12.683616,12.683616 0 0 1 0.0297,0.89678 12.683616,12.683616 0 0 1 -12.68363,12.68362 h -32.97739 a 10.146893,10.146893 0 0 1 -10.1469,-10.1469 10.146893,10.146893 0 0 1 0.0494,-1.01073 10.146893,10.146893 0 0 1 10.09735,-9.13616 10.146893,10.146893 0 0 1 0.75804,0.0348 10.146893,10.146893 0 0 1 0,0.005 10.146893,10.146893 0 0 1 2.93309,0.66388 15.22034,15.22034 0 0 1 -0.86704,-2.9083 15.22034,15.22034 0 0 1 -0.18823,-1.28817 15.22034,15.22034 0 0 1 -0.0348,-0.29233 15.22034,15.22034 0 0 1 -0.0644,-1.28817 15.22034,15.22034 0 0 1 0.0743,-1.52105 15.22034,15.22034 0 0 1 15.14601,-13.69929 z"
       inkscape:connector-curvature="0" />
    <path
       style="opacity:1;fill:#0f5d89;fill-opacity:1;stroke:none;stroke-width:0.04579636;stroke-miterlimit:4;stroke-dasharray:none;stroke-opacity:1"
       d="m 338.86612,538.10581 c -4.65969,-0.62456 -8.39418,-3.81206 -9.44075,-8.05796 -0.26286,-1.06638 -0.25859,-3.27751 0.007,-4.3354 0.81479,-3.22882 2.18454,-6.2505 5.43441,-7.65008 1.40744,-0.60608 2.24823,-1.40102 3.96266,-1.45896 1.61932,-0.0547 3.05119,-0.43689 4.50943,-0.0329 1.5662,0.43393 0.89791,1.42354 0.27848,-0.38272 -0.52113,-1.51959 -0.20234,-3.22609 -0.34238,-4.69257 -0.32542,-3.40817 0.76271,-6.60521 2.97225,-9.60847 4.27229,-5.65719 10.67017,-6.74255 14.28304,-6.77573 v 21.89085 21.21782 l -10.50151,-0.0126 c -5.77578,-0.006 -10.79958,-0.0525 -11.16404,-0.10135 z"
       id="path4217"
       inkscape:connector-curvature="0"
       sodipodi:nodetypes="csccccssccccccc" />
    <path
       style="opacity:1;fill:#0f5d89;fill-opacity:1;stroke:none;stroke-width:0.49399999;stroke-miterlimit:4;stroke-dasharray:none;stroke-opacity:1"
       d="m 416.07316,499.10662 c -6.17926,-0.0711 -11.03195,4.89519 -11.61119,11.41096 -0.24441,2.9115 0.30894,5.98037 1.74335,9.05961 -1.12386,-0.55076 -3.25378,-1.28941 -5.0078,-1.41 -3.90982,-0.38145 -5.71211,1.28709 -7.21658,2.65779 -3.57059,4.06275 -1.10317,11.79979 4.44268,12.46234 8.52521,-0.0788 17.05944,0.20891 25.58834,0.0999 3.3894,-0.0566 6.77889,-0.19716 10.15617,-0.49558 4.57703,-1.16144 7.16708,-6.19623 6.51296,-10.6826 -0.3659,-4.19885 -3.46395,-8.4553 -8.38007,-8.75432 -1.40549,-0.0969 -2.05388,0.17269 -3.41261,0.53989 1.29704,-6.3193 -1.71353,-9.3549 -3.18323,-11.04368 -2.42606,-2.58231 -6.06974,-4.04118 -9.63202,-3.84431 z"
       id="path4219"
       inkscape:connector-curvature="0"
       sodipodi:nodetypes="ccccccccccccc" />
  </g>
</svg>
