<?xml version="1.0" encoding="UTF-8" standalone="no"?>
<svg
   xmlns:dc="http://purl.org/dc/elements/1.1/"
   xmlns:cc="http://creativecommons.org/ns#"
   xmlns:rdf="http://www.w3.org/1999/02/22-rdf-syntax-ns#"
   xmlns:svg="http://www.w3.org/2000/svg"
   xmlns="http://www.w3.org/2000/svg"
   xmlns:sodipodi="http://sodipodi.sourceforge.net/DTD/sodipodi-0.dtd"
   xmlns:inkscape="http://www.inkscape.org/namespaces/inkscape"
   viewBox="0 0 32 32"
   version="1.1"
   id="svg5"
   sodipodi:docname="about.svg"
   inkscape:export-xdpi="192"
   inkscape:export-ydpi="192"
   inkscape:version="0.92.1 r">
  <metadata
     id="metadata9">
    <rdf:RDF>
      <cc:Work
         rdf:about="">
        <dc:format>image/svg+xml</dc:format>
        <dc:type
           rdf:resource="http://purl.org/dc/dcmitype/StillImage" />
      </cc:Work>
    </rdf:RDF>
  </metadata>
  <sodipodi:namedview
     pagecolor="#ffffff"
     bordercolor="#666666"
     borderopacity="1"
     objecttolerance="10"
     gridtolerance="10"
     guidetolerance="10"
     inkscape:pageopacity="0"
     inkscape:pageshadow="2"
     inkscape:window-width="1920"
     inkscape:window-height="1016"
     id="namedview7"
     showgrid="false"
     inkscape:zoom="7.375"
     inkscape:cx="12.42228"
     inkscape:cy="10.280714"
     inkscape:window-x="0"
     inkscape:window-y="0"
     inkscape:window-maximized="1"
     inkscape:current-layer="svg5" />
  <defs
     id="defs3051">
    <style
       type="text/css"
       id="current-color-scheme">
      .ColorScheme-Text {
        color:#4d4d4d;
      }
      </style>
  </defs>
  <circle
     style="fill:#ffffff;fill-opacity:1;stroke:none;stroke-width:0.76736611;stroke-linecap:butt;stroke-linejoin:bevel;stroke-miterlimit:4;stroke-dasharray:3.06946483, 1.53473241, 0.76736621, 1.53473241;stroke-dashoffset:10;stroke-opacity:1"
     id="path4494"
     cx="16"
     cy="16"
     r="12.902156" />
  <path
     sodipodi:type="inkscape:offset"
     inkscape:radius="0.29027492"
     inkscape:original="M 16 1.8261719 C 12.289588 1.826172 8.6021725 3.3548586 5.9785156 5.9785156 C 3.3548586 8.6021725 1.826172 12.289588 1.8261719 16 C 1.826172 19.710411 3.3548586 23.397827 5.9785156 26.021484 C 8.6021725 28.645142 12.289588 30.173828 16 30.173828 C 19.710411 30.173828 23.397827 28.645142 26.021484 26.021484 C 28.645142 23.397827 30.173828 19.710411 30.173828 16 C 30.173828 12.289588 28.645142 8.6021725 26.021484 5.9785156 C 23.397827 3.3548586 19.710411 1.8261719 16 1.8261719 z M 16 2.9316406 C 15.449475 2.9316406 17.190486 2.9723245 16.640625 2.9453125 C 16.090763 2.9182995 17.829124 3.0481011 17.28125 2.9941406 C 16.733377 2.9401806 18.460582 3.1530437 17.916016 3.0722656 C 17.37145 2.9914866 19.090727 3.2909961 18.550781 3.1835938 C 18.010834 3.0761918 19.709808 3.4579853 19.175781 3.3242188 C 18.641755 3.1904522 20.321741 3.6539494 19.794922 3.4941406 C 19.268103 3.3343317 20.920687 3.8788255 20.402344 3.6933594 C 19.884001 3.5078932 21.510571 4.138411 21.001953 3.9277344 C 20.493335 3.7170578 22.085559 4.4209265 21.587891 4.1855469 C 21.090222 3.9501673 22.647628 4.7341249 22.162109 4.4746094 C 21.67659 4.2150939 23.19095 5.0740418 22.71875 4.7910156 C 22.246549 4.5079894 23.719463 5.4406206 23.261719 5.1347656 C 22.803975 4.8289106 24.227342 5.8299002 23.785156 5.5019531 C 23.342971 5.174006 24.716577 6.2457335 24.291016 5.8964844 C 23.865455 5.5472354 25.185256 6.686116 24.777344 6.3164062 C 24.369432 5.9466966 25.629513 7.1490453 25.240234 6.7597656 C 24.850954 6.370486 26.053303 7.6305681 25.683594 7.2226562 C 25.313884 6.8147445 26.452764 8.1345457 26.103516 7.7089844 C 25.754267 7.2834233 26.825993 8.6570292 26.498047 8.2148438 C 26.170099 7.7726584 27.171089 9.1960257 26.865234 8.7382812 C 26.559379 8.2805367 27.49201 9.7534501 27.208984 9.28125 C 26.925958 8.8090493 27.784906 10.323409 27.525391 9.8378906 C 27.265876 9.3523714 28.049832 10.909777 27.814453 10.412109 C 27.579074 9.9144411 28.282942 11.506666 28.072266 10.998047 C 27.861589 10.489429 28.492106 12.115999 28.306641 11.597656 C 28.121174 11.079313 28.665668 12.731898 28.505859 12.205078 C 28.34605 11.678259 28.809547 13.358245 28.675781 12.824219 C 28.542014 12.290193 28.923808 13.989166 28.816406 13.449219 C 28.709004 12.909273 29.008512 14.62855 28.927734 14.083984 C 28.846954 13.539418 29.059818 15.266624 29.005859 14.71875 C 28.951889 14.170877 29.081698 15.909237 29.054688 15.359375 C 29.027677 14.809514 29.068359 16.550525 29.068359 16 C 29.068359 15.449475 29.027678 17.190486 29.054688 16.640625 C 29.081698 16.090763 28.951902 17.829124 29.005859 17.28125 C 29.059829 16.733377 28.846958 18.460582 28.927734 17.916016 C 29.008514 17.37145 28.709004 19.090727 28.816406 18.550781 C 28.923808 18.010834 28.542014 19.709808 28.675781 19.175781 C 28.809547 18.641755 28.34605 20.321741 28.505859 19.794922 C 28.665668 19.268103 28.121174 20.920687 28.306641 20.402344 C 28.492106 19.884001 27.861589 21.510571 28.072266 21.001953 C 28.282942 20.493335 27.579074 22.085559 27.814453 21.587891 C 28.049832 21.090222 27.265876 22.647628 27.525391 22.162109 C 27.784906 21.67659 26.925958 23.19095 27.208984 22.71875 C 27.49201 22.246549 26.559379 23.719463 26.865234 23.261719 C 27.171089 22.803975 26.170099 24.227342 26.498047 23.785156 C 26.825993 23.342971 25.754267 24.716577 26.103516 24.291016 C 26.452764 23.865455 25.313884 25.185256 25.683594 24.777344 C 26.053303 24.369432 24.850954 25.629513 25.240234 25.240234 C 25.629513 24.850954 24.369432 26.053303 24.777344 25.683594 C 25.185256 25.313884 23.865455 26.452764 24.291016 26.103516 C 24.716577 25.754267 23.342971 26.825993 23.785156 26.498047 C 24.227342 26.170099 22.803975 27.171089 23.261719 26.865234 C 23.719463 26.559379 22.246549 27.49201 22.71875 27.208984 C 23.19095 26.925958 21.67659 27.784906 22.162109 27.525391 C 22.647628 27.265876 21.090222 28.049832 21.587891 27.814453 C 22.085559 27.579074 20.493335 28.282942 21.001953 28.072266 C 21.510571 27.861589 19.884001 28.492106 20.402344 28.306641 C 20.920687 28.121174 19.268103 28.665668 19.794922 28.505859 C 20.321741 28.34605 18.641755 28.809547 19.175781 28.675781 C 19.709808 28.542014 18.010834 28.923808 18.550781 28.816406 C 19.090727 28.709004 17.37145 29.008512 17.916016 28.927734 C 18.460582 28.846954 16.733377 29.059818 17.28125 29.005859 C 17.829124 28.951889 16.090763 29.081698 16.640625 29.054688 C 17.190486 29.027677 15.449475 29.068359 16 29.068359 C 16.550525 29.068359 14.809514 29.027677 15.359375 29.054688 C 15.909237 29.081698 14.170877 28.951902 14.71875 29.005859 C 15.266624 29.059829 13.539418 28.846958 14.083984 28.927734 C 14.62855 29.008514 12.909273 28.709004 13.449219 28.816406 C 13.989166 28.923808 12.290193 28.542014 12.824219 28.675781 C 13.358245 28.809547 11.678259 28.34605 12.205078 28.505859 C 12.731898 28.665668 11.079313 28.121174 11.597656 28.306641 C 12.115999 28.492106 10.489429 27.861589 10.998047 28.072266 C 11.506666 28.282942 9.9144406 27.579074 10.412109 27.814453 C 10.909777 28.049832 9.3523711 27.265876 9.8378906 27.525391 C 10.323409 27.784906 8.8090494 26.925958 9.28125 27.208984 C 9.7534505 27.49201 8.2805369 26.559379 8.7382812 26.865234 C 9.1960257 27.171089 7.7726585 26.170099 8.2148438 26.498047 C 8.6570293 26.825993 7.2834232 25.754267 7.7089844 26.103516 C 8.1345456 26.452764 6.8147444 25.313884 7.2226562 25.683594 C 7.630568 26.053303 6.370486 24.850954 6.7597656 25.240234 C 7.1490453 25.629513 5.9466966 24.369432 6.3164062 24.777344 C 6.686116 25.185256 5.5472353 23.865455 5.8964844 24.291016 C 6.2457335 24.716577 5.174006 23.342971 5.5019531 23.785156 C 5.8299001 24.227342 4.8289105 22.803975 5.1347656 23.261719 C 5.4406206 23.719463 4.5079894 22.246549 4.7910156 22.71875 C 5.0740418 23.19095 4.2150939 21.67659 4.4746094 22.162109 C 4.7341248 22.647628 3.9501673 21.090222 4.1855469 21.587891 C 4.4209265 22.085559 3.7170579 20.493335 3.9277344 21.001953 C 4.138411 21.510571 3.5078932 19.884001 3.6933594 20.402344 C 3.8788255 20.920687 3.3343317 19.268103 3.4941406 19.794922 C 3.6539493 20.321741 3.1904522 18.641755 3.3242188 19.175781 C 3.4579853 19.709808 3.0761918 18.010834 3.1835938 18.550781 C 3.2909957 19.090727 2.9914864 17.37145 3.0722656 17.916016 C 3.1530446 18.460582 2.9401802 16.733377 2.9941406 17.28125 C 3.0481006 17.829124 2.9182995 16.090763 2.9453125 16.640625 C 2.9723255 17.190486 2.9316406 15.449475 2.9316406 16 C 2.9316406 16.550525 2.9723245 14.809514 2.9453125 15.359375 C 2.9182995 15.909237 3.0481011 14.170877 2.9941406 14.71875 C 2.9401806 15.266624 3.1530437 13.539418 3.0722656 14.083984 C 2.9914866 14.62855 3.2909962 12.909273 3.1835938 13.449219 C 3.0761918 13.989166 3.4579853 12.290193 3.3242188 12.824219 C 3.1904511 13.358245 3.6539493 11.678259 3.4941406 12.205078 C 3.3343317 12.731898 3.8788255 11.079313 3.6933594 11.597656 C 3.5078932 12.115999 4.138411 10.489429 3.9277344 10.998047 C 3.7170579 11.506666 4.4209265 9.9144406 4.1855469 10.412109 C 3.9501673 10.909777 4.7341248 9.3523711 4.4746094 9.8378906 C 4.2150939 10.323409 5.0740418 8.8090494 4.7910156 9.28125 C 4.5079894 9.7534505 5.4406206 8.2805369 5.1347656 8.7382812 C 4.8289105 9.1960257 5.8299001 7.7726585 5.5019531 8.2148438 C 5.174006 8.6570293 6.2457335 7.2834232 5.8964844 7.7089844 C 5.5472353 8.1345456 6.686116 6.8147444 6.3164062 7.2226562 C 5.9466966 7.630568 7.1490453 6.370486 6.7597656 6.7597656 C 6.370486 7.1490453 7.630568 5.9466966 7.2226562 6.3164062 C 6.8147445 6.686116 8.1345456 5.5472353 7.7089844 5.8964844 C 7.2834232 6.2457335 8.6570293 5.174006 8.2148438 5.5019531 C 7.7726584 5.8299001 9.1960258 4.8289105 8.7382812 5.1347656 C 8.2805368 5.4406206 9.7534505 4.5079894 9.28125 4.7910156 C 8.8090494 5.0740418 10.323409 4.2150939 9.8378906 4.4746094 C 9.3523711 4.7341248 10.909777 3.9501673 10.412109 4.1855469 C 9.9144406 4.4209265 11.506666 3.7170579 10.998047 3.9277344 C 10.489429 4.138411 12.115999 3.5078932 11.597656 3.6933594 C 11.079313 3.8788255 12.731898 3.3343317 12.205078 3.4941406 C 11.678259 3.6539493 13.358245 3.1904522 12.824219 3.3242188 C 12.290193 3.4579853 13.989166 3.0761918 13.449219 3.1835938 C 12.909273 3.2909957 14.62855 2.9914864 14.083984 3.0722656 C 13.539418 3.1530446 15.266624 2.9401802 14.71875 2.9941406 C 14.170877 3.0481006 15.909237 2.9182995 15.359375 2.9453125 C 14.809514 2.9723255 16.550525 2.9316408 16 2.9316406 z M 14.896484 6.2421875 C 14.384474 6.2421371 13.968699 6.6579117 13.96875 7.1699219 L 13.96875 9.3769531 C 13.968699 9.8889634 14.384474 10.304737 14.896484 10.304688 L 17.103516 10.304688 C 17.615527 10.304737 18.031301 9.8889634 18.03125 9.3769531 L 18.03125 7.1699219 C 18.031301 6.6579117 17.615527 6.2421371 17.103516 6.2421875 L 14.896484 6.2421875 z M 14.896484 12.576172 C 14.384474 12.576122 13.968699 12.989943 13.96875 13.501953 L 13.96875 24.541016 C 13.968699 25.053026 14.384474 25.4688 14.896484 25.46875 L 17.103516 25.46875 C 17.615527 25.4688 18.031301 25.053026 18.03125 24.541016 L 18.03125 13.501953 C 18.031301 12.989943 17.615527 12.576122 17.103516 12.576172 L 14.896484 12.576172 z "
     style="color:#4d4d4d;fill:currentColor;fill-opacity:1;stroke:none;stroke-width:1.10382259"
     id="path55"
     d="m 16,1.5351562 c -3.790141,2e-7 -7.5466113,1.55833 -10.2265625,4.2382813 C 3.0934862,8.4533887 1.5351564,12.209859 1.5351562,16 c 2e-7,3.79014 1.55833,7.546611 4.2382813,10.226562 C 8.4533887,28.906515 12.209859,30.464844 16,30.464844 c 3.79014,0 7.546611,-1.558329 10.226562,-4.238282 C 28.906515,23.546611 30.464844,19.79014 30.464844,16 c 0,-3.790141 -1.558329,-7.5466113 -4.238282,-10.2265625 C 23.546611,3.0934862 19.79014,1.5351562 16,1.5351562 Z m 0,1.6953126 c 0.08558,0.00311 0.189467,0.005 0.3125,0.00781 0.117813,0.00269 0.215652,0.00309 0.300781,0.00391 0.08606,0.00779 0.196691,0.017768 0.324219,0.027344 0.123049,0.00924 0.228788,0.016225 0.314453,0.021484 0.08486,0.011652 0.188694,0.026004 0.310547,0.041016 0.120223,0.014811 0.219724,0.025859 0.304688,0.035156 0.08485,0.016086 0.190847,0.035068 0.314453,0.056641 0.115949,0.020236 0.210876,0.035238 0.294921,0.048828 0.08381,0.02021 0.194013,0.045827 0.320313,0.074219 0.123272,0.027711 0.23024,0.050718 0.314453,0.068359 0.08209,0.02378 0.178571,0.051929 0.294922,0.083984 0.11728,0.032311 0.215816,0.058439 0.298828,0.080078 0.08103,0.02793 0.180637,0.060716 0.298828,0.099609 0.120188,0.039551 0.224479,0.073939 0.306641,0.099609 0.07945,0.03212 0.171635,0.067983 0.283203,0.1113282 0.108674,0.042221 0.197955,0.075716 0.277344,0.1054687 0.07814,0.035943 0.183218,0.083951 0.302734,0.1367187 0.116347,0.051368 0.217483,0.093341 0.296875,0.1269532 0.07577,0.03939 0.162963,0.085027 0.269531,0.1386718 0.107487,0.054107 0.196511,0.099265 0.273438,0.1367188 0.07423,0.043592 0.169758,0.09799 0.279297,0.1601562 0.107305,0.060899 0.198312,0.1110705 0.273437,0.1523438 0.07193,0.046952 0.159734,0.1041124 0.263672,0.1699219 0.09951,0.063006 0.181419,0.1135923 0.253906,0.1582031 0.06959,0.050494 0.162097,0.1153227 0.267578,0.1894531 0.104422,0.073385 0.194404,0.1371052 0.265626,0.1855469 0.06645,0.053227 0.143006,0.1127423 0.236328,0.1855469 0.09459,0.073795 0.174139,0.1338968 0.242187,0.1855469 0.06446,0.057317 0.146196,0.130044 0.242188,0.2128906 0.09103,0.078567 0.166959,0.1442111 0.232421,0.1992187 0.06145,0.060482 0.13928,0.1355564 0.230469,0.2226563 0.08922,0.085224 0.165748,0.1565024 0.228516,0.2148437 0.05834,0.062768 0.12962,0.1392906 0.214844,0.2285157 0.0871,0.091189 0.162174,0.1690228 0.222656,0.2304687 0.05501,0.065463 0.120652,0.1413894 0.199219,0.2324219 0.08285,0.095991 0.155573,0.1777274 0.21289,0.2421875 0.05165,0.068048 0.111752,0.1475961 0.185547,0.2421875 0.0728,0.093322 0.13232,0.1698815 0.185547,0.2363281 0.04844,0.071222 0.112162,0.1612036 0.185547,0.265625 0.07413,0.1054815 0.138959,0.1979841 0.189453,0.2675781 0.04461,0.072487 0.0952,0.1543968 0.158203,0.2539063 0.06581,0.1039377 0.12297,0.1917382 0.169922,0.2636719 0.04127,0.075125 0.09145,0.1661323 0.152344,0.2734374 0.06217,0.1095386 0.116564,0.2050689 0.160156,0.2792969 0.03745,0.076927 0.08261,0.1659509 0.136719,0.2734379 0.05364,0.106568 0.09928,0.19376 0.138672,0.269531 0.03361,0.07939 0.07559,0.180528 0.126953,0.296875 0.05277,0.119516 0.100775,0.224591 0.136719,0.302734 0.02975,0.07939 0.06325,0.16867 0.105468,0.277344 0.04334,0.111568 0.07921,0.203752 0.111328,0.283203 0.02567,0.08216 0.06006,0.186453 0.09961,0.306641 0.03889,0.118191 0.07168,0.217794 0.09961,0.298828 0.02164,0.08301 0.04777,0.181548 0.08008,0.298828 0.03205,0.116351 0.0602,0.212827 0.08398,0.294922 0.01764,0.08421 0.04065,0.191181 0.06836,0.314453 0.02839,0.1263 0.05401,0.236499 0.07422,0.320313 0.01359,0.08404 0.02859,0.178972 0.04883,0.294921 0.02157,0.123606 0.04055,0.2296 0.05664,0.314453 0.0093,0.08496 0.02035,0.184465 0.03516,0.304688 0.01501,0.121853 0.02936,0.225688 0.04102,0.310547 0.0053,0.08567 0.01225,0.191403 0.02148,0.314453 0.0096,0.127529 0.01955,0.238156 0.02734,0.324219 8.21e-4,0.08513 0.0012,0.182968 0.0039,0.300781 0.0028,0.123033 0.0047,0.226919 0.0078,0.3125 -0.0031,0.08558 -0.005,0.189467 -0.0078,0.3125 -0.0027,0.117813 -0.0031,0.215653 -0.0039,0.300781 -0.0078,0.08606 -0.01777,0.196691 -0.02734,0.324219 -0.0092,0.123049 -0.01622,0.228788 -0.02148,0.314453 -0.01165,0.08486 -0.026,0.188695 -0.04102,0.310547 -0.01481,0.120222 -0.02586,0.219725 -0.03516,0.304688 -0.01609,0.08485 -0.03507,0.190847 -0.05664,0.314453 -0.02024,0.115949 -0.03524,0.210876 -0.04883,0.294921 -0.02021,0.08381 -0.04583,0.194013 -0.07422,0.320313 -0.02771,0.123272 -0.05072,0.23024 -0.06836,0.314453 -0.02378,0.08209 -0.05193,0.178571 -0.08398,0.294922 -0.03231,0.11728 -0.05844,0.215816 -0.08008,0.298828 -0.02793,0.08103 -0.06072,0.180637 -0.09961,0.298828 -0.03955,0.120188 -0.07394,0.224479 -0.09961,0.306641 -0.03212,0.07945 -0.06798,0.171635 -0.111328,0.283203 -0.04222,0.108674 -0.07571,0.197955 -0.105468,0.277344 -0.03594,0.07814 -0.08395,0.183218 -0.136719,0.302734 -0.05137,0.116347 -0.09334,0.217483 -0.126953,0.296875 -0.03939,0.07577 -0.08503,0.162963 -0.138672,0.269531 -0.05411,0.107487 -0.09927,0.196511 -0.136719,0.273438 -0.04359,0.07423 -0.09799,0.169758 -0.160156,0.279297 -0.0609,0.107305 -0.111071,0.198312 -0.152344,0.273437 -0.04695,0.07193 -0.104112,0.159734 -0.169922,0.263672 -0.06301,0.09951 -0.113592,0.181419 -0.158203,0.253906 -0.05049,0.06959 -0.115323,0.162097 -0.189453,0.267578 -0.07338,0.104422 -0.137105,0.194404 -0.185547,0.265626 -0.05323,0.06645 -0.112742,0.143006 -0.185547,0.236328 -0.0738,0.09459 -0.133897,0.174139 -0.185547,0.242187 -0.05732,0.06446 -0.130044,0.146196 -0.21289,0.242188 -0.07857,0.09103 -0.144211,0.166959 -0.199219,0.232421 -0.06048,0.06145 -0.135556,0.13928 -0.222656,0.230469 -0.08522,0.08922 -0.156503,0.165748 -0.214844,0.228516 -0.06277,0.05834 -0.139291,0.12962 -0.228516,0.214844 -0.09119,0.0871 -0.169023,0.162174 -0.230469,0.222656 -0.06546,0.05501 -0.141389,0.120652 -0.232421,0.199219 -0.09599,0.08285 -0.177728,0.155573 -0.242188,0.21289 -0.06805,0.05165 -0.147596,0.111752 -0.242187,0.185547 -0.09332,0.0728 -0.169882,0.13232 -0.236328,0.185547 -0.07122,0.04844 -0.161204,0.112162 -0.265626,0.185547 -0.105481,0.07413 -0.197984,0.138959 -0.267578,0.189453 -0.07249,0.04461 -0.154396,0.0952 -0.253906,0.158203 -0.103938,0.06581 -0.191738,0.12297 -0.263672,0.169922 -0.07512,0.04127 -0.166132,0.09145 -0.273437,0.152344 -0.109539,0.06217 -0.205069,0.116564 -0.279297,0.160156 -0.07693,0.03745 -0.165951,0.08261 -0.273438,0.136719 -0.106568,0.05364 -0.19376,0.09928 -0.269531,0.138672 -0.07939,0.03361 -0.180528,0.07559 -0.296875,0.126953 -0.119516,0.05277 -0.224591,0.100775 -0.302734,0.136719 -0.07939,0.02975 -0.16867,0.06325 -0.277344,0.105468 -0.111568,0.04334 -0.203752,0.07921 -0.283203,0.111328 -0.08216,0.02567 -0.186453,0.06006 -0.306641,0.09961 -0.118191,0.03889 -0.217794,0.07168 -0.298828,0.09961 -0.08301,0.02164 -0.181548,0.04777 -0.298828,0.08008 -0.116351,0.03205 -0.212827,0.0602 -0.294922,0.08398 -0.08421,0.01764 -0.191181,0.04065 -0.314453,0.06836 -0.1263,0.02839 -0.236499,0.05401 -0.320313,0.07422 -0.08404,0.01359 -0.178972,0.02859 -0.294921,0.04883 -0.123606,0.02157 -0.2296,0.04055 -0.314453,0.05664 -0.08496,0.0093 -0.184465,0.02035 -0.304688,0.03516 -0.121853,0.01501 -0.225688,0.02936 -0.310547,0.04102 -0.08567,0.0053 -0.191403,0.01225 -0.314453,0.02148 -0.127529,0.0096 -0.238156,0.01955 -0.324219,0.02734 -0.08513,8.21e-4 -0.182968,0.0012 -0.300781,0.0039 -0.123033,0.0028 -0.226919,0.0047 -0.3125,0.0078 -0.08558,-0.0031 -0.189467,-0.005 -0.3125,-0.0078 -0.117813,-0.0027 -0.215652,-0.0031 -0.300781,-0.0039 -0.08606,-0.0078 -0.196691,-0.01777 -0.324219,-0.02734 -0.123049,-0.0092 -0.228788,-0.01622 -0.314453,-0.02148 -0.08486,-0.01165 -0.188695,-0.026 -0.310547,-0.04102 -0.120222,-0.01481 -0.219725,-0.02586 -0.304688,-0.03516 -0.08485,-0.01609 -0.190847,-0.03507 -0.314453,-0.05664 -0.115949,-0.02024 -0.210876,-0.03524 -0.294921,-0.04883 -0.08381,-0.02021 -0.194013,-0.04583 -0.320313,-0.07422 -0.123272,-0.02771 -0.23024,-0.05072 -0.314453,-0.06836 -0.08209,-0.02378 -0.178571,-0.05193 -0.294922,-0.08398 -0.11728,-0.03231 -0.215816,-0.05844 -0.298828,-0.08008 -0.08103,-0.02793 -0.180637,-0.06072 -0.298828,-0.09961 -0.120188,-0.03955 -0.224479,-0.07394 -0.306641,-0.09961 -0.07945,-0.03212 -0.171635,-0.06798 -0.283203,-0.111328 -0.108674,-0.04222 -0.197955,-0.07571 -0.277344,-0.105468 -0.07814,-0.03594 -0.183218,-0.08395 -0.302734,-0.136719 -0.116347,-0.05137 -0.217483,-0.09334 -0.296875,-0.126953 -0.07577,-0.03939 -0.162963,-0.08503 -0.269531,-0.138672 -0.107487,-0.05411 -0.196512,-0.09927 -0.2734379,-0.136719 C 9.9121001,27.222033 9.8165698,27.167635 9.7070312,27.105469 9.5997261,27.04457 9.5087191,26.994398 9.4335938,26.953125 9.3616601,26.906173 9.2738596,26.849013 9.1699219,26.783203 9.0704123,26.720197 8.9885026,26.669611 8.9160156,26.625 8.8464216,26.574506 8.753919,26.509677 8.6484375,26.435547 8.5440161,26.362162 8.4540343,26.298442 8.3828125,26.25 8.3163659,26.196773 8.239806,26.137258 8.1464844,26.064453 8.051893,25.990658 7.9723454,25.930556 7.9042969,25.878906 7.8398368,25.821589 7.7581008,25.748862 7.6621094,25.666016 7.5710769,25.587449 7.4951502,25.521805 7.4296875,25.466797 7.3682417,25.406315 7.2904079,25.331241 7.1992188,25.244141 7.1099937,25.158917 7.0334713,25.087638 6.9707031,25.029297 6.9123618,24.966529 6.8410833,24.890006 6.7558594,24.800781 6.6687595,24.709592 6.5936848,24.631758 6.5332031,24.570312 6.4781955,24.50485 6.4125511,24.428923 6.3339844,24.337891 6.2511378,24.241899 6.1784106,24.160163 6.1210938,24.095703 6.0694437,24.027655 6.009342,23.948107 5.9355469,23.853516 5.8627423,23.760194 5.8032274,23.683634 5.75,23.617188 5.7015583,23.545966 5.6378384,23.455984 5.5644531,23.351562 5.4903227,23.246081 5.4254942,23.153578 5.375,23.083984 5.3303892,23.011497 5.2798026,22.929588 5.2167969,22.830078 5.1509874,22.72614 5.0938272,22.63834 5.046875,22.566406 5.0056017,22.491281 4.9554301,22.400274 4.8945312,22.292969 4.8323649,22.18343 4.7779668,22.0879 4.734375,22.013672 4.6969217,21.936745 4.6517629,21.847721 4.5976562,21.740234 4.5440119,21.633666 4.498374,21.546474 4.4589844,21.470703 4.4253726,21.391311 4.3833995,21.290175 4.3320312,21.173828 4.2792635,21.054312 4.2312555,20.949236 4.1953125,20.871094 4.1655595,20.791705 4.1320648,20.702424 4.0898438,20.59375 4.0464986,20.482182 4.0106354,20.389998 3.9785156,20.310547 3.9528448,20.228385 3.9184571,20.124094 3.8789062,20.003906 3.8400125,19.885715 3.8072267,19.786112 3.7792969,19.705078 3.7576577,19.622066 3.7315298,19.52353 3.6992188,19.40625 3.6671637,19.289899 3.639014,19.193423 3.6152344,19.111328 c -0.017641,-0.08421 -0.040648,-0.191181 -0.068359,-0.314453 -0.028392,-0.1263 -0.054008,-0.236499 -0.074219,-0.320313 -0.01359,-0.08404 -0.028592,-0.178972 -0.048828,-0.294921 -0.021572,-0.123606 -0.040554,-0.2296 -0.056641,-0.314453 -0.0093,-0.08496 -0.020345,-0.184465 -0.035156,-0.304688 -0.015012,-0.121853 -0.029364,-0.225689 -0.041016,-0.310547 -0.00526,-0.08566 -0.012245,-0.191404 -0.021484,-0.314453 -0.00958,-0.127528 -0.019554,-0.238158 -0.027344,-0.324219 -8.202e-4,-0.08513 -0.00122,-0.182968 -0.00391,-0.300781 -0.00281,-0.123033 -0.0047,-0.226919 -0.00781,-0.3125 0.00311,-0.08558 0.005,-0.189467 0.00781,-0.3125 0.00269,-0.117813 0.00309,-0.215652 0.00391,-0.300781 0.00779,-0.08606 0.017768,-0.196691 0.027344,-0.324219 0.00924,-0.123049 0.016225,-0.228788 0.021484,-0.314453 0.011652,-0.08486 0.026004,-0.188694 0.041016,-0.310547 0.014811,-0.120223 0.025859,-0.219724 0.035156,-0.304688 0.016086,-0.08485 0.035068,-0.190847 0.056641,-0.314453 0.020236,-0.115949 0.035238,-0.210876 0.048828,-0.294921 0.02021,-0.08381 0.045827,-0.194013 0.074219,-0.320313 0.027711,-0.123272 0.050718,-0.23024 0.068359,-0.314453 0.02378,-0.08209 0.051929,-0.178572 0.083984,-0.294922 0.032311,-0.11728 0.058439,-0.215816 0.080078,-0.298828 0.02793,-0.08103 0.060716,-0.180637 0.099609,-0.298828 0.039551,-0.120188 0.073939,-0.224479 0.099609,-0.306641 0.03212,-0.07945 0.067983,-0.171635 0.1113282,-0.283203 0.042221,-0.108674 0.075716,-0.197955 0.1054687,-0.277344 0.035943,-0.07814 0.083951,-0.183218 0.1367187,-0.302734 0.051368,-0.116347 0.093341,-0.217483 0.1269532,-0.296875 0.03939,-0.07577 0.085027,-0.162963 0.1386718,-0.269531 0.054107,-0.107487 0.099265,-0.196512 0.1367188,-0.2734379 0.043592,-0.074228 0.09799,-0.1697583 0.1601562,-0.2792969 C 4.9554301,9.5997261 5.0056018,9.5087192 5.046875,9.4335938 5.0938271,9.3616601 5.1509874,9.2738596 5.2167969,9.1699219 5.2798026,9.0704124 5.3303893,8.9885026 5.375,8.9160156 5.4254943,8.8464217 5.4903227,8.753919 5.5644531,8.6484375 5.6378384,8.5440162 5.7015583,8.4540342 5.75,8.3828125 5.8032274,8.3163659 5.8627423,8.239806 5.9355469,8.1464844 6.009342,8.051893 6.0694437,7.9723453 6.1210938,7.9042969 6.1784106,7.8398369 6.2511378,7.7581007 6.3339844,7.6621094 6.4125511,7.5710769 6.4781955,7.4951501 6.5332031,7.4296875 6.5936847,7.3682417 6.6687595,7.2904079 6.7558594,7.1992188 6.8410833,7.1099937 6.9123618,7.0334713 6.9707031,6.9707031 7.0334713,6.9123618 7.1099937,6.8410833 7.1992188,6.7558594 7.2904079,6.6687595 7.3682417,6.5936847 7.4296875,6.5332031 7.4951501,6.4781954 7.5710769,6.4125511 7.6621094,6.3339844 7.7581007,6.2511378 7.8398369,6.1784106 7.9042969,6.1210938 7.9723453,6.0694437 8.051893,6.009342 8.1464844,5.9355469 8.239806,5.8627423 8.3163659,5.8032274 8.3828125,5.75 8.4540342,5.7015583 8.5440162,5.6378384 8.6484375,5.5644531 8.753919,5.4903227 8.8464216,5.4254943 8.9160156,5.375 8.9885026,5.3303893 9.0704123,5.2798026 9.1699219,5.2167969 9.2738596,5.1509874 9.3616601,5.0938271 9.4335938,5.046875 9.5087192,5.0056018 9.5997261,4.9554301 9.7070312,4.8945312 9.8165698,4.8323649 9.9121002,4.7779667 9.9863281,4.734375 c 0.076926,-0.037453 0.1659509,-0.082612 0.2734379,-0.1367188 0.106568,-0.053644 0.19376,-0.099282 0.269531,-0.1386718 0.07939,-0.033612 0.180528,-0.075585 0.296875,-0.1269532 0.119516,-0.052768 0.224591,-0.1007757 0.302734,-0.1367187 0.07939,-0.029753 0.16867,-0.063248 0.277344,-0.1054687 0.111568,-0.043345 0.203752,-0.079208 0.283203,-0.1113282 0.08216,-0.025671 0.186453,-0.060059 0.306641,-0.099609 0.118191,-0.038894 0.217794,-0.071679 0.298828,-0.099609 0.08301,-0.021639 0.181548,-0.047767 0.298828,-0.080078 0.116351,-0.032055 0.212827,-0.060205 0.294922,-0.083984 0.08421,-0.017641 0.191181,-0.040648 0.314453,-0.068359 0.1263,-0.028392 0.236499,-0.054008 0.320313,-0.074219 0.08404,-0.01359 0.178972,-0.028592 0.294921,-0.048828 0.123606,-0.021572 0.2296,-0.040554 0.314453,-0.056641 0.08496,-0.0093 0.184465,-0.020345 0.304688,-0.035156 0.121853,-0.015012 0.225689,-0.029364 0.310547,-0.041016 0.08567,-0.00526 0.191404,-0.012245 0.314453,-0.021484 0.127528,-0.00958 0.238158,-0.019554 0.324219,-0.027344 0.08513,-8.202e-4 0.182968,-0.00122 0.300781,-0.00391 0.123033,-0.00281 0.226919,-0.0047 0.3125,-0.00781 z m -1.103516,2.7207031 c -0.669169,-6.59e-5 -1.218816,0.54958 -1.21875,1.21875 v 2.2070312 c -6.6e-5,0.6691699 0.549582,1.2188139 1.21875,1.2187499 h 2.207032 c 0.669169,6.4e-5 1.218816,-0.54958 1.21875,-1.2187499 V 7.1699219 c 6.6e-5,-0.6691696 -0.54958,-1.2188159 -1.21875,-1.21875 z m 0,6.3339841 c -0.668431,-6.5e-5 -1.218816,0.547627 -1.21875,1.216797 v 11.039063 c -6.6e-5,0.669169 0.549581,1.218815 1.21875,1.21875 h 2.207032 c 0.669169,6.5e-5 1.218816,-0.549581 1.21875,-1.21875 V 13.501953 c 6.6e-5,-0.669169 -0.550319,-1.216862 -1.21875,-1.216797 z"
     transform="matrix(0.95781707,0,0,0.95781707,0.67492688,0.67492688)" />
</svg>
