<?xml version="1.0" encoding="UTF-8" standalone="no"?>
<!-- Created with Inkscape (http://www.inkscape.org/) -->

<svg
   xmlns:dc="http://purl.org/dc/elements/1.1/"
   xmlns:cc="http://creativecommons.org/ns#"
   xmlns:rdf="http://www.w3.org/1999/02/22-rdf-syntax-ns#"
   xmlns:svg="http://www.w3.org/2000/svg"
   xmlns="http://www.w3.org/2000/svg"
   xmlns:sodipodi="http://sodipodi.sourceforge.net/DTD/sodipodi-0.dtd"
   xmlns:inkscape="http://www.inkscape.org/namespaces/inkscape"
   width="68"
   version="1.1"
   height="68"
   id="svg2"
   inkscape:version="0.92.2 5c3e80d, 2017-08-06"
   sodipodi:docname="cloud_masking.svg"
   inkscape:export-filename="/home/xavier/Projects/SMBYC/Qgis_Plugins/CloudMasking/icon.png"
   inkscape:export-xdpi="112.5"
   inkscape:export-ydpi="112.5"
   viewBox="0 0 63.749997 63.749996">
  <sodipodi:namedview
     pagecolor="#ffffff"
     bordercolor="#666666"
     borderopacity="1"
     objecttolerance="10"
     gridtolerance="10"
     guidetolerance="10"
     inkscape:pageopacity="0"
     inkscape:pageshadow="2"
     inkscape:window-width="2560"
     inkscape:window-height="1404"
     id="namedview45"
     showgrid="false"
     inkscape:zoom="10.429825"
     inkscape:cx="50.303695"
     inkscape:cy="26.59737"
     inkscape:window-x="0"
     inkscape:window-y="36"
     inkscape:window-maximized="1"
     inkscape:current-layer="layer1" />
  <defs
     id="defs5455" />
  <metadata
     id="metadata5458">
    <rdf:RDF>
      <cc:Work
         rdf:about="">
        <dc:format>image/svg+xml</dc:format>
        <dc:type
           rdf:resource="http://purl.org/dc/dcmitype/StillImage" />
        <dc:title></dc:title>
      </cc:Work>
    </rdf:RDF>
  </metadata>
  <g
     inkscape:label="Capa 1"
     inkscape:groupmode="layer"
     id="layer1"
     transform="translate(-384.57143,-484.048)">
    <rect
       width="0"
       x="352.95316"
       y="492.91455"
       height="14.668059"
       style="fill:#4d4d4d"
       id="rect4035" />
    <rect
       width="0"
       x="359.91373"
       y="515.48517"
       height="14.668059"
       style="fill:#4d4d4d"
       id="rect4035-8" />
    <rect
       width="0"
       x="361.72702"
       y="514.42444"
       height="14.668059"
       style="fill:#4d4d4d"
       id="rect4035-0" />
    <rect
       width="0"
       x="335.79691"
       y="489.1333"
       height="14.668059"
       style="fill:#4d4d4d"
       id="rect4035-06" />
    <rect
       width="0"
       x="342.75748"
       y="511.70392"
       height="14.668059"
       style="fill:#4d4d4d"
       id="rect4035-8-7" />
    <rect
       width="0"
       x="344.57077"
       y="510.64319"
       height="14.668059"
       style="fill:#4d4d4d"
       id="rect4035-0-42" />
    <rect
       width="0"
       x="335.79691"
       y="489.1333"
       height="14.668059"
       style="fill:#4d4d4d"
       id="rect4035-3" />
    <rect
       width="0"
       x="342.75748"
       y="511.70392"
       height="14.668059"
       style="fill:#4d4d4d"
       id="rect4035-8-9" />
    <rect
       width="0"
       x="344.57077"
       y="510.64319"
       height="14.668059"
       style="fill:#4d4d4d"
       id="rect4035-0-4" />
    <rect
       width="0"
       x="335.79691"
       y="489.1333"
       height="14.668059"
       style="fill:#4d4d4d"
       id="rect4035-2" />
    <rect
       width="0"
       x="342.75748"
       y="511.70392"
       height="14.668059"
       style="fill:#4d4d4d"
       id="rect4035-8-99" />
    <rect
       width="0"
       x="344.57077"
       y="510.64319"
       height="14.668059"
       style="fill:#4d4d4d"
       id="rect4035-0-43" />
    <rect
       width="0"
       x="335.79691"
       y="489.1333"
       height="14.668059"
       style="fill:#4d4d4d"
       id="rect4035-3-9" />
    <rect
       width="0"
       x="342.75748"
       y="511.70392"
       height="14.668059"
       style="fill:#4d4d4d"
       id="rect4035-8-9-9" />
    <rect
       width="0"
       x="344.57077"
       y="510.64319"
       height="14.668059"
       style="fill:#4d4d4d"
       id="rect4035-0-4-4" />
    <rect
       width="0"
       x="406.06702"
       y="510.42273"
       height="10.999983"
       style="fill:#4d4d4d"
       id="rect4035-5" />
    <rect
       width="0"
       x="401.51501"
       y="512.94183"
       height="10.999983"
       style="fill:#4d4d4d"
       id="rect4035-7" />
    <rect
       width="0"
       x="397.00723"
       y="500.52325"
       height="10.999983"
       style="fill:#4d4d4d"
       id="rect4035-9" />
    <rect
       width="0"
       x="397.85126"
       y="512.76068"
       height="10.999983"
       style="fill:#4d4d4d"
       id="rect4035-96" />
    <rect
       width="0"
       x="393.29926"
       y="515.27979"
       height="10.999983"
       style="fill:#4d4d4d"
       id="rect4035-7-0" />
    <rect
       width="0"
       x="388.79147"
       y="502.86121"
       height="10.999983"
       style="fill:#4d4d4d"
       id="rect4035-9-6" />
    <rect
       width="0"
       x="406.06702"
       y="510.42273"
       height="10.999983"
       style="fill:#4d4d4d"
       id="rect4035-1" />
    <rect
       width="0"
       x="401.51501"
       y="512.94183"
       height="10.999983"
       style="fill:#4d4d4d"
       id="rect4035-7-2" />
    <rect
       width="0"
       x="397.00723"
       y="500.52325"
       height="10.999983"
       style="fill:#4d4d4d"
       id="rect4035-9-0" />
    <rect
       width="0"
       x="397.85126"
       y="512.76068"
       height="10.999983"
       style="fill:#4d4d4d"
       id="rect4035-96-9" />
    <rect
       width="0"
       x="393.29926"
       y="515.27979"
       height="10.999983"
       style="fill:#4d4d4d"
       id="rect4035-7-0-9" />
    <rect
       width="0"
       x="388.79147"
       y="502.86121"
       height="10.999983"
       style="fill:#4d4d4d"
       id="rect4035-9-6-9" />
    <path
       style="fill:#0f5d89;fill-opacity:1;stroke-width:1;stroke-linejoin:round"
       id="path4225"
       d="m 416.43663,491.97884 a 18.526092,18.526092 0 0 0 -18.52611,18.52608 18.526092,18.526092 0 0 0 0.212,2.65175 13.232923,13.232923 0 0 0 -0.212,-0.005 13.232923,13.232923 0 0 0 -13.23291,13.23293 13.232923,13.232923 0 0 0 13.23291,13.23291 h 34.40562 a 15.879508,15.879508 0 0 0 15.87951,-15.87952 15.879508,15.879508 0 0 0 -13.41385,-15.67274 18.526092,18.526092 0 0 0 -18.34517,-16.08627 z m 0,2.64657 a 15.879508,15.879508 0 0 1 1.58693,0.0775 15.879508,15.879508 0 0 1 7.37631,2.69827 15.879508,15.879508 0 0 1 0.005,0 15.879508,15.879508 0 0 1 3.46845,3.23069 15.879508,15.879508 0 0 1 0,0.005 15.879508,15.879508 0 0 1 3.21522,7.23161 15.879508,15.879508 0 0 1 0.22734,2.63622 13.232923,13.232923 0 0 1 2.63624,0.26361 13.232923,13.232923 0 0 1 1.27678,0.32566 13.232923,13.232923 0 0 1 0.005,0 13.232923,13.232923 0 0 1 1.23542,0.45486 13.232923,13.232923 0 0 1 0.005,0 13.232923,13.232923 0 0 1 1.18373,0.57378 13.232923,13.232923 0 0 1 0.0106,0.005 13.232923,13.232923 0 0 1 1.11654,0.68752 13.232923,13.232923 0 0 1 0.0106,0.005 13.232923,13.232923 0 0 1 1.04415,0.79603 13.232923,13.232923 0 0 1 0.005,0.005 13.232923,13.232923 0 0 1 0.96145,0.89429 13.232923,13.232923 0 0 1 0.005,0.005 13.232923,13.232923 0 0 1 1.63862,2.06765 13.232923,13.232923 0 0 1 0.005,0.005 13.232923,13.232923 0 0 1 0.65129,1.14239 13.232923,13.232923 0 0 1 0.005,0.005 13.232923,13.232923 0 0 1 0.53762,1.19923 13.232923,13.232923 0 0 1 0.005,0.005 13.232923,13.232923 0 0 1 0.41353,1.25094 13.232923,13.232923 0 0 1 0,0.005 13.232923,13.232923 0 0 1 0.28948,1.28711 13.232923,13.232923 0 0 1 0,0.005 13.232923,13.232923 0 0 1 0.16012,1.30778 13.232923,13.232923 0 0 1 0.031,0.93562 13.232923,13.232923 0 0 1 -13.23294,13.23292 h -34.40559 a 10.586338,10.586338 0 0 1 -10.58634,-10.58634 10.586338,10.586338 0 0 1 0.0516,-1.05451 10.586338,10.586338 0 0 1 10.53465,-9.53183 10.586338,10.586338 0 0 1 0.79087,0.0363 10.586338,10.586338 0 0 1 0,0.005 10.586338,10.586338 0 0 1 3.06011,0.69263 15.879508,15.879508 0 0 1 -0.90458,-3.03425 15.879508,15.879508 0 0 1 -0.19639,-1.34395 15.879508,15.879508 0 0 1 -0.0363,-0.30499 15.879508,15.879508 0 0 1 -0.0672,-1.34397 15.879508,15.879508 0 0 1 0.0775,-1.58691 15.879508,15.879508 0 0 1 15.80195,-14.2926 z"
       inkscape:connector-curvature="0" />
    <path
       style="opacity:1;fill:#0f5d89;fill-opacity:1;stroke:none;stroke-width:0.49400005;stroke-miterlimit:4;stroke-dasharray:none;stroke-opacity:1"
       d="m 415.91678,498.38378 c -6.44687,-0.0742 -11.50972,5.10719 -12.11405,11.90514 -0.255,3.0376 0.32232,6.23937 1.81885,9.45197 -1.17254,-0.57461 -3.3947,-1.34525 -5.22468,-1.47106 -4.07915,-0.39797 -5.95949,1.34283 -7.52911,2.7729 -3.72523,4.2387 -1.15095,12.31081 4.63508,13.00206 8.89442,-0.0822 17.79825,0.21795 26.69653,0.10422 3.53619,-0.059 7.07247,-0.2057 10.59601,-0.51704 4.77526,-1.21174 7.47748,-6.46458 6.79502,-11.14525 -0.38174,-4.38069 -3.61396,-8.82147 -8.74299,-9.13345 -1.46636,-0.10109 -2.14282,0.18017 -3.5604,0.56327 1.35321,-6.59298 -1.78775,-9.76004 -3.32109,-11.52196 -2.53113,-2.69414 -6.33261,-4.2162 -10.04917,-4.0108 z"
       id="path4219"
       inkscape:connector-curvature="0"
       sodipodi:nodetypes="ccccccccccccc" />
  </g>
</svg>
